<svg class="car" viewBox="-35.034 52.602 782.552 357.596" width="120" height="120">
        <rect id="back_left_wheel" fill-rule="evenodd" rx="8.585" ry="8.585" height="78.696" width="27.775" y="623.04" x="16.287" fill="#000000" transform="matrix(0, 1, -1, 0, 748.137024, 51.976753)"></rect>
        <rect id="back_ricght_wheel" fill-rule="evenodd" rx="8.585" ry="8.585" height="78.696" width="27.775" y="613.04" x="311.29" fill="#000000" transform="matrix(0, 1, -1, 0, 748.137024, 51.976753)"></rect>
        <rect id="front_right_wheel" fill-rule="evenodd" rx="8.585" ry="8.585" height="78.696" width="27.775" y="98.038" x="318.79" fill="#000000" transform="matrix(0, 1, -1, 0, 748.137024, 51.976753)"></rect>
        <rect id="front_left_wheel" rx="8.585" ry="8.585" height="78.696" width="27.775" y="101.12" x="8.633" fill="#000000" transform="matrix(0, 1, -1, 0, 748.137024, 51.976753)"></rect>
        <path id="car_body" class="paintable" d="M 357.268 620.766 C 244.198 623.128 226.868 602.846 210.158 599.505 C 193.453 560.729 190.281 233.775 200.303 207.045 C 207.796 146.505 195.367 136.48 191.616 63.515 C 184.476 -21.698 201.431 25.686 187.177 -60.965 C 208.835 -151.181 168.041 -153.018 355.697 -161.595 C 527.907 -159.194 503.657 -151.18 525.307 -60.965 C 511.053 25.687 528.008 -21.697 520.868 63.515 C 517.117 136.476 504.688 146.501 512.181 207.045 C 522.203 233.772 519.031 560.725 502.326 599.505 C 476.173 614.658 406.867 620.766 357.256 620.766 L 357.268 620.766 Z" fill="#ffffff" transform="matrix(0, 1, -1, 0, 585.922852, -126.561127)"></path>
        <path id="left_window_contour" d="M 317.125 -43.312 C 317.125 -43.312 338.659 39.13 338.659 39.13 C 338.659 39.13 338.659 193.71 335.583 196.28 C 332.506 198.856 307.897 242.652 307.897 242.652 C 307.897 242.652 314.049 -38.158 317.126 -43.318 L 317.125 -43.312 Z" fill="#000000" transform="matrix(0, 1, -1, 0, 422.945007, -223.610992)"></path>
        <path id="right_window_contour" d="M 334.431 221.685 C 334.431 221.685 312.897 304.127 312.897 304.127 C 312.897 304.127 312.897 458.707 315.973 461.277 C 319.05 463.853 343.659 507.649 343.659 507.649 C 343.659 507.649 337.507 226.839 334.43 221.679 L 334.431 221.685 Z" fill="#000000" transform="matrix(0, 1, -1, 0, 692.941956, 36.385986)"></path>
        <path id="bonnet" class="paintable" d="M 472.329 135.147 C 460.662 153.814 461.513 331.367 480.18 345.367 C 498.21 330.516 602.66 316.721 622.52 318.003 C 642.808 316.511 722.214 326.058 746.61 340.7 C 753.187 342.83 766.337 135.15 747.669 121.15 C 689.329 104.806 495.659 104.806 472.329 135.14 L 472.329 135.147 Z" stroke-opacity=".45912" fill-rule="evenodd" stroke="#000" stroke-width="1pt" fill="#ffffff" transform="matrix(0, 1, -1, 0, 838.762695, -383.154114)"></path>
        <path id="windshield_contour" d="M 313.635 190.692 C 313.635 190.692 379.165 163.795 452.275 163.107 C 518.108 162.466 547.84 172.73 587.885 188.126 C 583.032 236.882 578.177 283.069 566.042 298.466 C 454.402 270.236 447.122 270.236 335.482 298.466 C 333.052 283.076 311.209 193.256 313.636 190.696 L 313.635 190.692 Z" fill="#000000" transform="matrix(0, 1, -1, 0, 681.438843, -219.894257)"></path>
        <path id="windshield" d="M 317.651 193.975 C 317.651 193.975 381.434 169.213 452.601 168.58 C 516.679 167.99 545.618 177.439 584.601 191.613 C 579.877 236.498 575.152 279.018 563.34 293.193 C 454.67 267.207 447.59 267.208 338.92 293.194 C 336.558 279.02 315.297 196.338 317.659 193.976 L 317.651 193.975 Z" fill="#444444" transform="matrix(0, 1, -1, 0, 681.912537, -220.164658)"></path>
        <path id="rear-window_contour" d="M 16.332 132.623 C 3.963 191.991 -5.931 305.783 -5.931 305.783 C 13.859 323.099 115.279 330.52 117.759 330.52 C 125.18 330.52 226.599 323.099 243.919 298.362 C 243.919 283.52 234.023 177.152 224.129 130.152 C 137.55 142.52 21.289 137.573 16.339 132.625 L 16.332 132.623 Z" fill-rule="evenodd" fill="#00000" transform="matrix(0, 1, -1, 0, 349.329987, 111.341988)"></path>
        <path id="rear_window" d="M 20.2 137.653 C 8.388 194.348 -1.061 303.013 -1.061 303.013 C 17.838 319.549 114.689 326.636 117.059 326.636 C 124.146 326.636 220.999 319.549 237.539 295.926 C 237.539 281.752 228.089 180.176 218.64 135.286 C 135.959 147.097 24.93 142.373 20.2 137.648 L 20.2 137.653 Z" fill-rule="evenodd" fill="#444444" stroke-width="1pt" transform="matrix(0, 1, -1, 0, 349.199982, 112.721992)"></path>
        <path id="right-mirror" class="paintable" d="M 437.757 378.908 L 466.105 381.27 C 466.105 381.27 480.279 395.444 470.83 402.531 C 461.38 409.618 437.757 400.169 437.757 400.169 L 437.757 378.908 L 437.757 378.908 Z" stroke-opacity=".55346" fill-rule="evenodd" stroke="#000" stroke-width="1.25" fill="#ffffff" transform="matrix(0, 1, -1, 0, 847.954834, -63.880142)"></path>
        <path id="left_mirror" class="paintable" d="M 469.348 57.633 L 441 59.995 C 441 59.995 426.826 74.169 436.275 81.256 C 445.725 88.343 469.348 78.894 469.348 78.894 L 469.348 57.633 Z" stroke-opacity=".54717" fill-rule="evenodd" stroke="#000" stroke-width="1pt" fill="#ffffff" transform="matrix(0, 1, -1, 0, 521.949829, -380.42511)"></path>
        <path id="left_headlight" d="M 705.089 113.517 C 696.066 115.09 685.769 132.515 690.505 135.419 C 701.786 129.73 723.832 121.913 745.489 119.735 C 749.775 117.435 755.627 110.379 755.847 108.806 C 740.961 107.959 714.932 111.581 705.089 113.517 L 705.089 113.517 Z" stroke-opacity=".25157" fill-rule="evenodd" fill-opacity=".56604" stroke="#000" stroke-width="1.082pt" fill="#2e87cf" transform="matrix(0, 1, -1, 0, 844.629028, -600.530273)"></path>
        <path id="right_headlight" d="M 747.164 326.836 C 756.187 328.409 766.484 341.469 761.748 344.373 C 750.468 338.684 728.421 336.867 706.764 334.689 C 702.479 332.389 696.63 323.697 696.404 322.124 C 711.292 321.277 737.321 324.899 747.164 326.835 L 747.164 326.836 Z" stroke-opacity=".25157" fill-rule="evenodd" fill-opacity=".56604" stroke="#000" stroke-width="1.082pt" fill="#2e87cf" transform="matrix(0, 1, -1, 0, 1062.857666, -396.486969)"></path>
        <path id="path307" d="M 677.019 230.098 C 714.117 223.551 776.856 224.096 803.589 227.369" stroke-opacity=".37107" stroke="#000" stroke-width="1pt" fill="none" transform="matrix(0, 1, -1, 0, 967.855347, -512.752625)"></path>
        <path id="path308" d="M 674.291 230.098 C 711.389 223.551 774.128 224.096 800.861 227.369" stroke-opacity=".37107" stroke="#000" stroke-width="1pt" fill="none" transform="matrix(0, 1, -1, 0, 965.12738, -510.024658)"></path>
        <path id="path309" d="M 671.018 230.098 C 708.116 223.551 770.855 224.096 797.588 227.369" stroke-opacity=".37107" stroke="#000" stroke-width="1pt" fill="none" transform="matrix(0, 1, -1, 0, 961.85437, -506.751648)"></path>
        <path id="path310" d="M 668.023 228.743 C 705.121 222.742 766.223 223.832 792.413 225.468" stroke-opacity=".37107" stroke="#000" stroke-width="1pt" fill="none" transform="matrix(0, 1, -1, 0, 956.679688, -503.756317)"></path>
        <path id="left_window" d="M 316.677 -31.257 C 316.677 -31.257 333.213 44.338 333.213 44.338 C 333.213 44.338 333.213 186.078 330.851 188.438 C 328.488 190.8 309.59 230.959 309.59 230.959 C 309.59 230.959 314.314 -26.531 316.677 -31.261 L 316.677 -31.257 Z" fill="#444444" transform="matrix(0, 1, -1, 0, 421.250519, -221.552505)"></path>
        <path id="contour" d="M 66.931 4.609 C 64.598 30.276 51.94 448.059 71.597 447.949 C 141.453 474.416 293.217 471.533 350.117 440.948 C 367.647 440.877 357.116 23.268 354.783 -2.392" stroke="#000" stroke-width="1pt" fill="none" transform="matrix(0, 1, -1, 0, 442.215607, 21.395777)"></path>
        <path id="right_window" d="M 330.846 233.326 C 330.846 233.326 314.31 308.921 314.31 308.921 C 314.31 308.921 314.31 450.661 316.672 453.021 C 319.035 455.383 337.933 495.542 337.933 495.542 C 337.933 495.542 333.209 238.052 330.846 233.322 L 330.846 233.326 Z" fill="#444444" transform="matrix(0, 1, -1, 0, 690.553467, 38.310486)"></path>
</svg>